<svg width="256" height="256" viewBox="0 0 256 256" fill="none" xmlns="http://www.w3.org/2000/svg">
<path d="M56 32C56 32 55.7218 54.3376 54.8395 125.188C53.94 197.416 124.164 224.864 124.164 224.864C124.164 224.864 195.051 199.173 195.95 126.945C196.832 56.0949 197.111 33.7573 197.111 33.7573L56 32ZM166.248 69.9847C168.059 66.8579 171.537 64.1455 175.366 64.8821C176.444 65.2892 177.424 65.5966 178.104 66.294C177.728 64.9115 178.139 63.5387 178.841 62.4649C178.841 62.4649 180.955 58.6529 187.258 58.3377L187.253 58.7313L173.378 82.2774L172.984 82.2725C171.227 81.168 170.961 78.8027 171.967 77.0437C172.369 76.3597 172.669 75.9698 173.362 75.6832C171.989 75.2724 168.849 74.5444 166.44 70.3808C166.243 70.3783 166.243 70.3783 166.248 69.9847ZM170.87 86.0845L165.841 94.7812C153.726 87.6426 139.8 83.6308 125.827 83.4568C111.558 83.2791 97.8326 86.9465 85.5436 93.7812L80.7325 84.962C94.4126 77.062 110.209 73.1252 126.248 73.3249C142.288 73.5247 157.386 78.2399 170.87 86.0845ZM143.643 59.5661L144.768 56.1354C145.171 55.4515 145.864 55.0665 146.553 55.0751L152.145 56.5226L153.592 50.9307C153.995 50.2468 154.688 49.8618 155.377 49.8703L158.808 50.9957C159.492 51.3979 159.877 52.0916 159.868 52.7804L158.421 58.3723L164.013 59.8197C164.696 60.2219 165.082 60.9157 165.073 61.6045L163.948 65.0351C163.545 65.7191 162.852 66.1041 162.163 66.0955L156.571 64.648L154.413 72.0025C154.01 72.6865 153.317 73.0715 152.628 73.0629L149.197 71.9376C148.513 71.5354 148.128 70.8417 148.137 70.1528L150.295 62.7983L144.703 61.3508C143.621 61.3373 143.236 60.6436 143.643 59.5661ZM118.924 52.9594C120.011 52.5793 120.995 52.5916 122.073 52.9987C121.004 51.9027 120.726 50.5214 120.743 49.1438C120.743 49.1438 120.406 44.6123 126.059 41.1396L126.452 41.1445C132.018 44.6585 131.567 49.2786 131.567 49.2786C131.55 50.6562 130.844 52.0253 130.142 53.0991C131.229 52.719 132.213 52.7313 133.291 53.1384C136.718 54.5589 138.436 58.8123 138.393 62.2564C138.393 62.2564 138.388 62.65 137.995 62.6451C133.733 65.0525 130.696 63.9321 129.223 63.6185C129.608 64.3122 129.604 64.7058 129.595 65.3947C129.569 67.4611 127.776 69.2104 125.709 69.1846C123.643 69.1589 121.894 67.3655 121.92 65.2991C121.928 64.6103 121.933 64.2166 122.335 63.5327C120.949 64.2044 117.791 64.854 113.591 62.3412L113.202 61.9427C113.639 58.5035 115.461 54.3926 118.924 52.9594ZM89.221 59.282L94.8472 57.9742L93.5394 52.3481C93.1544 51.6543 93.9502 50.9753 94.6439 50.5903L98.1015 49.5507C98.7952 49.1657 99.4742 49.9615 99.8593 50.6552L101.167 56.2814L106.793 54.9736C107.487 54.5886 108.166 55.3844 108.551 56.0781L109.591 59.5357C109.976 60.2294 109.18 60.9084 108.486 61.2935L102.86 62.6013L104.834 70.0072C105.219 70.701 104.424 71.38 103.73 71.765L100.272 72.8046C99.5786 73.1896 98.8996 72.3938 98.5146 71.7001L96.54 64.2941L90.6223 65.303C89.9286 65.6881 89.2496 64.8922 88.8645 64.1985L87.825 60.7409C87.7327 60.2477 88.4301 59.5674 89.221 59.282ZM64.7443 56.9104C65.1379 56.9153 65.1379 56.9153 64.7443 56.9104C71.3324 57.3861 73.4495 61.2508 73.4495 61.2508C74.1249 62.3418 74.4976 64.0196 74.0905 65.0971C74.788 64.4169 75.879 63.7415 76.863 63.7538C80.7093 63.1128 84.1191 65.911 85.8512 69.0819L85.8463 69.4755C83.3335 73.6762 80.1723 74.621 78.7947 74.6039C79.4786 75.0061 79.8685 75.3062 80.1552 75.9987C81.2155 77.7835 80.4961 80.235 79.0078 81.2006L78.6142 81.1957L64.7443 56.9104ZM168.204 189.489C165.008 193.288 161.52 196.788 157.639 200.184C143.21 212.897 128.464 219.406 124.212 221.026C120.003 219.202 105.817 212.431 91.7086 199.363C87.9137 195.871 84.125 191.887 81.019 188.404L125.03 155.391L58.5618 102.893L192.587 104.562L124.931 155.39L168.204 189.489Z" fill="#4365E2"/>
</svg>
